# xmcd CD database file
#
# Track frame offsets:
#	150
#	16937
#	33219
#	51221
#
# Disc length: 1016 seconds
#
# Revision: 0
# Processed by: cddbd v1.5.1PL0 Copyright (c) Steve Scherf et al.
# Submitted via: CDex 1.51
#
DISCID=2503f604
DTITLE=サンボマスター - 美しき人間の日々
DYEAR=2004
DGENRE=J-Pop
TTITLE0=美しき人間の日々
TTITLE1=熱中時代
TTITLE2=だんだん
TTITLE3=そのぬくもりに用がある
EXTD=YEAR: 2004/4/7
EXTT0=
EXTT1=
EXTT2=
EXTT3=
PLAYORDER=
